<?xml version="1.0" encoding="utf-8"?>
<!-- Generator: Adobe Illustrator 20.1.0, SVG Export Plug-In . SVG Version: 6.00 Build 0)  -->
<svg version="1.1" id="Layer_1" xmlns="http://www.w3.org/2000/svg" xmlns:xlink="http://www.w3.org/1999/xlink" x="0px" y="0px"
	 viewBox="0 0 5000 1500" style="enable-background:new 0 0 5000 1500;" xml:space="preserve">
<style type="text/css">
	.st0{fill:#F28E21;}
</style>
<g>
	<g>
		<path class="st0" d="M204,914.7l22.6-25.9c51.1,47.1,98.3,69.1,166.7,69.1c69.7,0,117.5-39.2,117.5-92.3v-1.3
			c0-49.1-25.9-77.7-131.5-98.9c-111.6-22.6-156.7-60.4-156.7-130.8v-1.3c0-69,63.1-122.2,149.4-122.2c67.7,0,112.2,18.6,159.4,56.4
			l-21.9,27.2c-43.8-37.8-87.6-52.5-138.8-52.5c-68.4,0-113.5,39.2-113.5,87.6v1.3c0,49.1,25.2,79,135.5,101.6
			c107.6,21.9,152.7,60.4,152.7,128.2v1.3c0,75-64.4,126.8-154,126.8C316.9,989,259.8,964.5,204,914.7z"/>
		<path class="st0" d="M688.2,751.3V750c0-131.5,98.3-240.4,232.4-240.4c83,0,132.8,30.5,180.6,74.4l-24.6,25.2
			c-40.5-39.2-87-68.4-156.7-68.4c-111.6,0-195.9,91-195.9,207.8v1.3c0,117.5,85.7,209.1,196.5,209.1c67.1,0,112.9-25.9,160-72.4
			l23.2,22.6c-49.1,48.5-102.3,81-184.6,81C786.4,990.4,688.2,884.8,688.2,751.3z"/>
		<path class="st0" d="M1261.1,517.6h34.5v215.1h297.5V517.6h34.5v464.8h-34.5V764.6h-297.5v217.8h-34.5V517.6z"/>
		<path class="st0" d="M1790.7,517.6h330.7v31.9h-296.1v182.6h266.3v31.9h-266.3v186.6h299.5v31.9h-334V517.6z"/>
		<path class="st0" d="M2279.2,517.6h154.7c146.1,0,247,100.3,247,231.1v1.3c0,130.8-100.9,232.4-247,232.4h-154.7V517.6z
			 M2313.7,549.5v401h120.2c129.5,0,211.1-88.3,211.1-199.2V750c0-110.2-81.7-200.5-211.1-200.5H2313.7z"/>
		<path class="st0" d="M2841,785.5V514h34.5v268.3c0,109.5,59.1,172.6,157.4,172.6c94.3,0,154.7-57.1,154.7-169.3V514h34.5v267.6
			c0,133.5-77.7,204.5-190.6,204.5C2920,986,2841,915.7,2841,785.5z"/>
		<path class="st0" d="M3419,1272.8l-156.2-75.5c-12.3-6-17.6-20.9-11.6-33.3l447.2-925.3c6-12.3,20.9-17.6,33.3-11.6l156.2,75.5
			c12.3,6,17.6,20.9,11.6,33.3l-447.2,925.3C3446.3,1273.6,3431.3,1278.8,3419,1272.8z"/>
		<path class="st0" d="M3823.9,1272.8l-156.2-75.5c-12.3-6-17.6-20.9-11.6-33.3l447.2-925.3c6-12.3,20.9-17.6,33.3-11.6l156.2,75.5
			c12.3,6,17.6,20.9,11.6,33.3l-447.2,925.3C3851.2,1273.6,3836.2,1278.8,3823.9,1272.8z"/>
		<path class="st0" d="M4328.5,751.3V750c0-126.8,93.6-240.4,234.4-240.4s233.1,112.2,233.1,239v1.3c0,126.8-93.6,240.4-234.4,240.4
			C4420.8,990.4,4328.5,878.2,4328.5,751.3z M4760.1,751.3V750c0-114.9-83.7-209.2-198.5-209.2c-114.9,0-197.2,93-197.2,207.8v1.3
			c0,114.9,83.7,209.1,198.5,209.1S4760.1,866.2,4760.1,751.3z"/>
	</g>
</g>
</svg>
